<?xml version="1.0" standalone="no"?>
<!DOCTYPE svg PUBLIC "-//W3C//DTD SVG 20010904//EN"
 "http://www.w3.org/TR/2001/REC-SVG-20010904/DTD/svg10.dtd">
<svg version="1.0" xmlns="http://www.w3.org/2000/svg"
 width="512.000000pt" height="512.000000pt" viewBox="0 0 512.000000 512.000000"
 preserveAspectRatio="xMidYMid meet">
<metadata>
Created by potrace 1.11, written by Peter Selinger 2001-2013
</metadata>
<g transform="translate(0.000000,512.000000) scale(0.100000,-0.100000)"
fill="#000000" stroke="none">
<path d="M1940 4102 c-395 -28 -766 -202 -1025 -482 -80 -86 -99 -111 -158
-200 -110 -166 -186 -338 -223 -507 l-19 -83 -120 -1 c-66 0 -137 -2 -157 -4
-87 -9 -167 -66 -211 -150 -29 -53 -30 -173 -2 -225 33 -64 64 -96 119 -124
65 -33 76 -34 242 -35 l131 -1 12 -60 c28 -141 114 -358 189 -474 38 -58 132
-188 151 -207 9 -9 43 -45 76 -79 112 -116 280 -234 445 -313 68 -32 205 -81
255 -91 11 -3 49 -11 85 -19 36 -9 90 -18 120 -22 66 -8 651 -15 663 -8 5 3
27 6 50 8 219 15 483 107 692 242 223 144 415 362 540 611 53 105 107 264 131
384 9 45 17 84 19 86 5 6 115 -23 162 -43 28 -13 54 -21 57 -19 3 2 4 1 1 -2
-2 -4 15 -19 38 -35 83 -55 158 -135 319 -339 59 -75 127 -155 151 -177 l45
-42 65 67 c69 71 93 100 143 172 72 103 144 273 168 395 4 17 9 41 12 55 12
56 11 288 -3 365 -34 198 -130 403 -265 561 -42 49 -112 114 -123 114 -19 0
-111 -103 -232 -260 -122 -159 -254 -286 -339 -326 -19 -9 -34 -21 -34 -26 0
-5 -4 -7 -9 -4 -5 3 -24 0 -42 -8 -19 -8 -53 -17 -75 -21 l-42 -6 -7 38 c-4
21 -9 51 -12 67 -18 108 -107 341 -179 464 -49 86 -154 221 -232 301 -127 127
-254 226 -276 214 -6 -3 -8 -3 -4 2 10 10 -8 23 -97 68 -171 87 -338 142 -491
163 -27 3 -58 9 -69 11 -20 6 -571 10 -635 5z m-425 -1042 c131 -51 195 -211
135 -336 -26 -53 -95 -116 -145 -131 -120 -37 -255 21 -305 132 -34 74 -28
167 15 235 61 97 194 142 300 100z"/>
</g>
</svg>
